<?xml version="1.0" encoding="UTF-8"?>
<svg id="Camada_2" data-name="Camada 2" xmlns="http://www.w3.org/2000/svg" viewBox="0 0 360.9 360.9">
  <defs>
    <style>
      .cls-1 {
        isolation: isolate;
      }

      .cls-2 {
        fill: #fff;
      }

      .cls-2, .cls-3 {
        stroke-width: 0px;
      }

      .cls-4 {
        fill: none;
        stroke: #fff;
        stroke-miterlimit: 10;
        stroke-width: 4px;
      }

      .cls-3 {
        fill: #414493;
      }
    </style>
  </defs>
  <g id="Camada_1-2" data-name="Camada 1">
    <circle class="cls-3" cx="180.45" cy="180.45" r="180.45"/>
    <circle class="cls-4" cx="180.45" cy="180.45" r="165.15"/>
    <g>
      <g>
        <g class="cls-1">
          <path class="cls-2" d="m109.65,217.68c-.12-.39-.26-.79-.4-1.2-.14-.41-.28-.82-.43-1.22h-4.36c-.14.41-.28.81-.43,1.22-.14.41-.27.81-.39,1.2h-2.61c.42-1.2.82-2.32,1.2-3.34s.74-1.98,1.11-2.89c.36-.9.71-1.76,1.06-2.57.35-.81.71-1.6,1.1-2.37h2.38c.37.77.73,1.56,1.08,2.37.36.81.72,1.67,1.08,2.57.36.9.73,1.87,1.11,2.89.38,1.02.78,2.13,1.2,3.34h-2.69Zm-3.02-8.64c-.06.16-.14.39-.25.66-.11.28-.23.6-.37.97-.14.37-.29.77-.46,1.21-.17.44-.34.9-.52,1.38h3.19c-.17-.48-.34-.95-.5-1.39-.16-.44-.32-.84-.46-1.21s-.27-.69-.38-.97-.2-.5-.26-.66Z"/>
          <path class="cls-2" d="m120.75,206.51v2.14h-3.37v9.03h-2.52v-9.03h-3.37v-2.14h9.25Z"/>
          <path class="cls-2" d="m128.53,217.68c-.12-.39-.26-.79-.4-1.2-.14-.41-.28-.82-.43-1.22h-4.36c-.14.41-.28.81-.43,1.22-.14.41-.27.81-.39,1.2h-2.61c.42-1.2.82-2.32,1.2-3.34s.74-1.98,1.11-2.89c.36-.9.71-1.76,1.06-2.57.35-.81.71-1.6,1.1-2.37h2.38c.37.77.73,1.56,1.08,2.37.36.81.72,1.67,1.08,2.57.36.9.73,1.87,1.11,2.89.38,1.02.78,2.13,1.2,3.34h-2.69Zm-3.02-8.64c-.06.16-.14.39-.25.66-.11.28-.23.6-.37.97-.14.37-.29.77-.46,1.21-.17.44-.34.9-.52,1.38h3.19c-.17-.48-.34-.95-.5-1.39-.16-.44-.32-.84-.46-1.21s-.27-.69-.38-.97-.2-.5-.26-.66Z"/>
          <path class="cls-2" d="m137.36,217.91c-1.81,0-3.2-.5-4.15-1.52-.95-1.01-1.43-2.44-1.43-4.3,0-.92.14-1.75.43-2.48.29-.73.69-1.34,1.2-1.84.5-.5,1.1-.88,1.81-1.13.7-.26,1.45-.39,2.27-.39.47,0,.9.04,1.29.11s.73.15,1.02.24.53.18.73.28c.19.1.33.17.42.23l-.72,2.03c-.35-.18-.74-.34-1.2-.46-.46-.13-.97-.2-1.56-.2-.39,0-.76.07-1.13.2-.37.13-.7.33-.99.62s-.51.65-.68,1.1-.26,1-.26,1.65c0,.52.06.99.17,1.44s.29.83.55,1.15c.25.32.58.58.99.77s.9.28,1.49.28c.36,0,.69-.02.98-.06.29-.04.55-.1.78-.15.22-.06.43-.13.6-.2s.33-.14.47-.21l.69,2.02c-.35.21-.85.41-1.5.58-.64.18-1.39.26-2.24.26Z"/>
          <path class="cls-2" d="m150.66,217.68c-.12-.39-.26-.79-.4-1.2-.14-.41-.28-.82-.43-1.22h-4.36c-.14.41-.28.81-.43,1.22-.14.41-.27.81-.39,1.2h-2.61c.42-1.2.82-2.32,1.2-3.34s.74-1.98,1.11-2.89c.36-.9.71-1.76,1.06-2.57.35-.81.71-1.6,1.1-2.37h2.38c.37.77.73,1.56,1.08,2.37.36.81.72,1.67,1.08,2.57.36.9.73,1.87,1.11,2.89.38,1.02.78,2.13,1.2,3.34h-2.69Zm-3.02-8.64c-.06.16-.14.39-.25.66-.11.28-.23.6-.37.97-.14.37-.29.77-.46,1.21-.17.44-.34.9-.52,1.38h3.19c-.17-.48-.34-.95-.5-1.39-.16-.44-.32-.84-.46-1.21s-.27-.69-.38-.97-.2-.5-.26-.66Z"/>
          <path class="cls-2" d="m164.57,212.09c0,.97-.15,1.81-.45,2.53-.3.72-.73,1.31-1.28,1.79-.56.47-1.23.83-2.02,1.06-.8.24-1.69.35-2.68.35-.45,0-.98-.02-1.58-.06-.6-.04-1.19-.11-1.77-.23v-10.88c.58-.11,1.19-.18,1.81-.22.63-.04,1.17-.06,1.62-.06.96,0,1.83.11,2.61.32.78.21,1.45.55,2.01,1.02.56.46.99,1.05,1.29,1.77.3.72.45,1.59.45,2.6Zm-7.27,3.54c.12.01.26.02.41.03.16,0,.34,0,.56,0,1.26,0,2.19-.32,2.8-.95.6-.64.91-1.51.91-2.63,0-1.17-.29-2.06-.87-2.66-.58-.6-1.5-.9-2.76-.9-.18,0-.35,0-.53,0-.18,0-.35.02-.52.04v7.06Z"/>
          <path class="cls-2" d="m177.31,212.09c0,.96-.14,1.8-.43,2.52-.28.72-.67,1.33-1.17,1.82-.5.49-1.08.85-1.77,1.1-.68.25-1.42.37-2.2.37s-1.49-.12-2.16-.37c-.67-.25-1.27-.62-1.77-1.1-.51-.49-.9-1.1-1.2-1.82-.29-.73-.43-1.57-.43-2.52s.15-1.8.45-2.52c.3-.73.71-1.34,1.22-1.83.51-.5,1.1-.86,1.77-1.11.67-.25,1.38-.37,2.12-.37s1.48.12,2.16.37c.67.25,1.27.62,1.77,1.11.5.5.9,1.1,1.19,1.83.29.72.43,1.56.43,2.52Zm-8.53,0c0,.55.07,1.04.2,1.48.14.44.33.82.58,1.14.25.32.56.56.93.73.36.18.78.26,1.26.26s.88-.08,1.25-.26c.37-.17.68-.42.93-.73.25-.32.45-.7.58-1.14.13-.44.2-.93.2-1.48s-.07-1.05-.2-1.49c-.14-.44-.33-.82-.58-1.14-.25-.32-.57-.56-.93-.73-.37-.18-.79-.26-1.25-.26s-.89.09-1.26.27c-.37.18-.67.42-.93.74-.25.32-.45.7-.58,1.14-.13.45-.2.94-.2,1.48Z"/>
          <path class="cls-2" d="m183.28,217.68v-11.17h7.55v2.11h-5.03v2.19h4.47v2.06h-4.47v2.69h5.4v2.11h-7.92Z"/>
          <path class="cls-2" d="m200.26,217.68c-.45-.94-.89-1.91-1.32-2.92-.43-1.01-.84-2.01-1.23-3-.39-.99-.75-1.93-1.07-2.83-.33-.91-.61-1.71-.85-2.42h2.77c.21.64.44,1.34.7,2.09.25.75.52,1.49.78,2.23.26.74.52,1.45.76,2.13.24.68.48,1.27.7,1.76.21-.49.44-1.08.69-1.76.25-.67.51-1.38.78-2.13.26-.74.53-1.49.78-2.23.26-.75.49-1.45.7-2.09h2.68c-.25.71-.54,1.52-.86,2.42-.33.9-.68,1.85-1.07,2.83-.39.99-.8,1.99-1.23,3s-.87,1.98-1.31,2.92h-2.4Z"/>
          <path class="cls-2" d="m215.01,217.68c-.12-.39-.26-.79-.4-1.2-.14-.41-.28-.82-.43-1.22h-4.36c-.14.41-.28.81-.43,1.22-.14.41-.27.81-.39,1.2h-2.61c.42-1.2.82-2.32,1.2-3.34s.74-1.98,1.11-2.89c.36-.9.71-1.76,1.06-2.57.35-.81.71-1.6,1.1-2.37h2.38c.37.77.73,1.56,1.08,2.37.36.81.72,1.67,1.08,2.57.36.9.73,1.87,1.11,2.89.38,1.02.78,2.13,1.2,3.34h-2.69Zm-3.02-8.64c-.06.16-.14.39-.25.66-.11.28-.23.6-.37.97-.14.37-.29.77-.46,1.21-.17.44-.34.9-.52,1.38h3.19c-.17-.48-.34-.95-.5-1.39-.16-.44-.32-.84-.46-1.21s-.27-.69-.38-.97-.2-.5-.26-.66Z"/>
          <path class="cls-2" d="m222.41,206.38c1.68,0,2.96.3,3.86.89s1.34,1.52,1.34,2.78c0,.78-.18,1.42-.54,1.91-.36.49-.88.88-1.56,1.15.23.28.46.6.71.96.25.36.49.74.73,1.13.25.39.48.8.7,1.23.23.42.44.84.63,1.25h-2.81c-.21-.37-.41-.74-.62-1.11s-.43-.74-.65-1.1c-.22-.35-.44-.69-.65-1.01-.22-.32-.43-.6-.65-.86h-1.24v4.08h-2.52v-11.02c.55-.11,1.12-.18,1.7-.22.58-.04,1.11-.07,1.57-.07Zm.15,2.15c-.18,0-.35,0-.5.01-.14.01-.28.02-.41.04v3.03h.71c.95,0,1.63-.12,2.03-.35.41-.23.61-.64.61-1.21s-.21-.94-.62-1.17c-.41-.23-1.02-.35-1.83-.35Z"/>
          <path class="cls-2" d="m229.89,217.68v-11.17h7.55v2.11h-5.03v2.19h4.47v2.06h-4.47v2.69h5.4v2.11h-7.92Z"/>
          <path class="cls-2" d="m246.16,213.92c0,.55-.06,1.06-.18,1.55-.12.48-.34.9-.64,1.26-.31.36-.72.65-1.24.86-.52.21-1.18.31-1.98.31-.73,0-1.36-.09-1.88-.26-.53-.18-.96-.39-1.31-.62l.84-1.95c.31.18.64.34,1,.48s.74.21,1.16.21c.61,0,1.06-.15,1.32-.45s.4-.81.4-1.52v-7.29h2.52v7.41Z"/>
          <path class="cls-2" d="m259.22,212.09c0,.96-.14,1.8-.43,2.52-.28.72-.67,1.33-1.17,1.82-.5.49-1.08.85-1.77,1.1-.68.25-1.42.37-2.2.37s-1.49-.12-2.16-.37c-.67-.25-1.27-.62-1.77-1.1-.51-.49-.9-1.1-1.2-1.82-.29-.73-.43-1.57-.43-2.52s.15-1.8.45-2.52c.3-.73.71-1.34,1.22-1.83.51-.5,1.1-.86,1.77-1.11.67-.25,1.38-.37,2.12-.37s1.48.12,2.16.37c.67.25,1.27.62,1.77,1.11.5.5.9,1.1,1.19,1.83.29.72.43,1.56.43,2.52Zm-8.53,0c0,.55.07,1.04.2,1.48.14.44.33.82.58,1.14.25.32.56.56.93.73.36.18.78.26,1.26.26s.88-.08,1.25-.26c.37-.17.68-.42.93-.73.25-.32.45-.7.58-1.14.13-.44.2-.93.2-1.48s-.07-1.05-.2-1.49c-.14-.44-.33-.82-.58-1.14-.25-.32-.57-.56-.93-.73-.37-.18-.79-.26-1.25-.26s-.89.09-1.26.27c-.37.18-.67.42-.93.74-.25.32-.45.7-.58,1.14-.13.45-.2.94-.2,1.48Z"/>
        </g>
        <path class="cls-2" d="m186.34,48.52c1.23.23,2.48.39,3.69.7,5.43,1.4,9.56,4.47,11.88,9.65,3.42,7.61.06,15.37-7.82,18.27-.51.19-1.02.36-1.77.62.66.23,1.11.38,1.55.55,5.16,1.92,8.66,5.35,9.24,10.99.59,5.77-1.88,10.36-6.39,13.86-3.2,2.49-6.95,3.71-10.95,3.77-8.48.12-16.96.04-25.44.04-.29,0-.58-.05-1.02-.09v-1.23c0-18.64,0-37.28,0-55.92,0-.4.08-.8.13-1.2h26.89Zm-13.14,40.65c0,1.77.04,3.55-.02,5.32-.03.84.27,1.08,1.08,1.07,2.55-.04,5.11.01,7.66-.02,3.3-.04,6.31-2.97,6.4-6.19.09-3.11-2.94-6.26-6.23-6.36-2.66-.08-5.33,0-7.99-.03-.77-.01-.93.33-.91,1,.03,1.74.01,3.47.01,5.21Zm.06-16.64c2.98,0,5.86.01,8.74,0,3.25-.02,6.31-3.06,6.33-6.24.02-3.17-3.05-6.24-6.3-6.27-2.63-.02-5.25,0-7.88,0-.28,0-.56.06-.89.1v12.42Z"/>
        <path class="cls-2" d="m300.36,189.69c-.15.72-.3,1.43-.44,2.15-.94,4.84-3.84,7.74-8.76,8.59-3.39.59-6.76.38-9.83-1.28-3.5-1.89-5.02-5.12-5.3-8.94-.27-3.58.15-7.04,2.67-9.88,2.87-3.24,6.68-3.89,10.73-3.57,1.56.12,3.17.45,4.61,1.04,3.74,1.54,5.53,4.6,6.05,8.49.05.4.18.78.27,1.17v2.22Zm-7.11-.66c-.15-1.41-.16-2.45-.4-3.45-.53-2.26-2.24-3.61-4.52-3.71-2.37-.11-4.18,1.07-4.87,3.36-.75,2.5-.74,5.03.21,7.5.67,1.73,2.38,2.76,4.41,2.77,2.11,0,3.77-.92,4.39-2.73.44-1.3.57-2.71.78-3.74Z"/>
        <path class="cls-2" d="m233.13,88.1c0,11.5-.09,23.01.05,34.51.05,4.25-.93,8.2-2.5,12.05-4.95,12.16-14.03,20.09-26.02,24.9-10.07,4.04-20.55,5.13-31.29,3.88-11.03-1.28-21.15-4.96-29.91-11.93-8.21-6.53-13.41-14.97-15.67-25.2-.17-.75-.23-1.54-.23-2.31-.01-24.6,0-49.19,0-73.79q0-1.44,1.47-1.45c8.33,0,16.67,0,25,0q1.58,0,1.58,1.54c0,21.6.05,43.2-.05,64.8-.02,3.92,1.07,7.38,3.09,10.57,4.82,7.6,11.94,11.57,20.78,12.61,5.6.66,10.93-.26,15.83-3.12,6.46-3.77,9.9-9.62,11.09-16.82.48-2.93.59-5.96.6-8.94.05-19.46.03-38.91.03-58.37,0-2.14.01-1.76,1.82-1.77,7.67-.01,15.33.02,23-.03,1.07,0,1.37.29,1.37,1.36-.04,12.5-.02,25-.02,37.51Z"/>
        <path class="cls-2" d="m181.24,110.57c6.89,0,13.77.02,20.66-.02.96,0,1.33.23,1.42,1.26.81,9.44-6.38,18.72-15.9,20.07-4.61.65-9.33.85-13.9-.34-9.03-2.33-14.84-10.51-14.3-19.8.05-.9.35-1.3,1.25-1.17.04,0,.07,0,.11,0,6.89,0,13.77,0,20.66,0Z"/>
        <path class="cls-2" d="m77.1,185.2c1.9.76,3.33,1.6,4.16,3.23,1.46,2.85.9,7.23-1.22,9.59-1.32,1.48-3.09,1.87-4.9,2.01-2.32.18-4.65.19-6.98.23-2.15.03-4.3-.02-6.44.02-.83.02-1.18-.18-1.18-1.1.03-8.73.02-17.45,0-26.18,0-.75.21-1.04,1-1.04,4.33.03,8.66-.03,12.99.04,3.7.05,6.26,2.72,6.41,6.42.12,2.95-.86,5.28-3.86,6.78Zm-9.51,6.21c0,.74-.06,1.48.03,2.21.04.28.41.74.65.75,1.36.05,2.74.1,4.09-.06,1.83-.23,2.76-1.44,2.67-3.17-.08-1.64-1.15-2.68-2.98-2.79-1.18-.07-2.36,0-3.54-.04-.75-.03-.97.32-.93,1,.04.7,0,1.4.01,2.1Zm0-8.19c1.63-.07,3.14-.03,4.62-.24,1.25-.18,1.92-1.31,1.9-2.74-.01-1.43-.71-2.45-2.03-2.63-1.27-.17-2.57-.14-3.86-.13-.21,0-.6.37-.6.57-.05,1.65-.03,3.3-.03,5.17Z"/>
        <path class="cls-2" d="m205.54,172.65c.03.48.07.8.07,1.13,0,5.4.07,10.8-.03,16.2-.06,2.94-.92,5.67-2.99,7.91-2.37,2.57-5.48,2.9-8.68,2.77-1.54-.06-3.13-.26-4.58-.75-3.1-1.05-4.82-3.5-5.54-6.57-.39-1.67-.53-3.44-.55-5.16-.07-4.7-.03-9.39-.02-14.09,0-1.43,0-1.44,1.48-1.43,1.7,0,3.41.01,5.11.02.1,0,.21.06.46.14,0,.4,0,.83,0,1.26,0,5.29-.01,10.58.01,15.87.01,2.26,1.11,3.83,2.93,4.33,2.59.72,4.8-.7,5.2-3.36.11-.76.18-1.54.18-2.31.02-4.92.03-9.84,0-14.76,0-.89.2-1.25,1.16-1.21,1.88.07,3.77.02,5.79.02Z"/>
        <path class="cls-2" d="m217.39,187.75v10.19q0,2.33-2.34,2.33c-1.04,0-2.08-.05-3.11.02-.88.06-1.15-.25-1.14-1.13.04-3.7.02-7.39.02-11.09,0-3.29.03-6.58-.02-9.87-.01-.89.28-1.15,1.14-1.12,1.48.06,2.96.05,4.44,0,.75-.03,1.21.23,1.63.86,2.5,3.71,5.05,7.38,7.58,11.07.18.26.38.5.84.69,0-.38,0-.76,0-1.14,0-3.44.02-6.88-.02-10.31,0-.84.19-1.2,1.1-1.16,1.55.07,3.11.05,4.66,0,.74-.02.96.26.96.97-.02,7.06-.02,14.12,0,21.18,0,.86-.33,1.07-1.12,1.05-1.52-.05-3.04-.06-4.55,0-.82.04-1.28-.3-1.71-.94-2.46-3.64-4.95-7.27-7.44-10.9-.2-.29-.44-.55-.65-.82l-.28.12Z"/>
        <path class="cls-2" d="m101.66,190.04c4.03,1.69,4.79,5.53,6.64,8.56.28.46.49.97.84,1.67-1.87,0-3.57-.15-5.23.04-2.01.23-3.19-.42-3.99-2.32-.78-1.86-1.91-3.58-2.89-5.36-.54-.99-1.32-1.67-2.48-1.84-.82-.12-1.23.08-1.21,1.03.05,2.44-.01,4.88.03,7.32.02.85-.22,1.19-1.13,1.16-1.63-.06-3.26-.04-4.89,0-.75.02-1.07-.21-1.06-1,.02-7.06.02-14.12,0-21.18,0-.77.27-1.02,1.04-1.02,4.29.04,8.59-.02,12.88.07,1.2.02,2.45.25,3.58.66,2.36.87,3.66,3.12,3.58,5.83-.08,2.72-1.61,4.92-4.04,5.82-.45.17-.9.32-1.67.59Zm-8.3-8.57c0,1.68-.03,3.11.03,4.54,0,.22.47.6.71.58,1.47-.07,2.95-.14,4.39-.37,1.16-.19,1.79-1.1,1.79-2.19,0-1.13-.6-2.1-1.74-2.26-1.67-.22-3.36-.21-5.19-.3Z"/>
        <path class="cls-2" d="m274.11,200.26c-2.28,0-4.42.03-6.57-.03-.31,0-.75-.42-.89-.74-.34-.77-.47-1.64-.81-2.41-.14-.32-.61-.68-.94-.69-2.29-.06-4.59-.07-6.89,0-.36.01-.86.47-1.04.85-.44.92-.46,2.31-1.14,2.78-.75.51-2.06.22-3.12.24-1.21.02-2.43,0-3.86,0,.61-1.65,1.16-3.12,1.71-4.59,2.17-5.73,4.37-11.46,6.5-17.21.37-.99.81-1.49,1.97-1.42,1.84.11,3.7.04,5.55.02.58,0,.93.12,1.16.74,2.73,7.3,5.5,14.58,8.26,21.87.05.13.05.28.1.58Zm-12.48-17.07c-.13,0-.26,0-.38,0-.83,2.73-1.66,5.45-2.53,8.28h5.45c-.87-2.84-1.7-5.56-2.54-8.29Z"/>
        <path class="cls-2" d="m169.35,200.25c-2.33,0-4.58,0-6.82-.02-.17,0-.38-.2-.5-.36-.13-.17-.18-.4-.25-.61q-.92-2.9-3.99-2.9c-1.44,0-2.89.02-4.33,0-.68-.01-1.14.16-1.27.91-.07.4-.27.77-.38,1.16-.64,2.2-.33,1.81-2.54,1.84-1.65.02-3.3,0-5.15,0,.6-1.65,1.12-3.09,1.66-4.53,2.22-5.87,4.46-11.73,6.67-17.6.28-.75.66-1.1,1.53-1.07,1.96.07,3.92-.01,5.88.05.37.01.95.32,1.07.63,2.81,7.34,5.58,14.7,8.35,22.06.03.07.02.14.07.45Zm-15.39-8.77h5.47c-.88-2.85-1.72-5.58-2.57-8.31l-.36.04c-.83,2.7-1.66,5.4-2.54,8.27Z"/>
        <path class="cls-2" d="m123.07,177.08h1.27c6.44,0,12.88.03,19.31-.03,1.16-.01,1.5.37,1.41,1.46-.08.99-.05,2,0,2.99.04.83-.31,1.09-1.12,1.07-1.74-.04-3.48.02-5.22-.03-.88-.02-1.14.31-1.14,1.17.03,5.1,0,10.2.03,15.3,0,.95-.21,1.32-1.23,1.27-1.51-.08-3.04-.09-4.55,0-1.08.07-1.28-.36-1.27-1.33.04-5.03,0-10.05.04-15.08,0-1.02-.3-1.37-1.33-1.33-1.77.07-3.55,0-5.33.03-.66,0-.93-.2-.91-.89.04-1.47.01-2.94.01-4.6Z"/>
        <path class="cls-2" d="m112.19,188.68c0-3.51.02-7.02-.02-10.53,0-.82.23-1.11,1.07-1.08,1.66.06,3.33.04,4.99,0,.71-.02.98.22.98.95-.02,7.09-.02,14.19,0,21.28,0,.71-.22.99-.96.97-1.66-.04-3.33-.06-4.99,0-.95.04-1.1-.38-1.09-1.19.03-3.47.01-6.95.01-10.42Z"/>
        <path class="cls-2" d="m245.63,188.69c0,3.48-.02,6.95.02,10.43,0,.84-.18,1.2-1.11,1.16-1.63-.07-3.26-.06-4.89,0-.85.03-1.07-.28-1.07-1.09.03-7.03.02-14.06,0-21.08,0-.75.21-1.06,1-1.03,1.67.05,3.33.06,5,0,.85-.03,1.07.27,1.06,1.09-.04,3.51-.02,7.03-.02,10.54Z"/>
        <path class="cls-2" d="m255.98,175.63c-.48-2.43,1.03-5.07,4.13-4.2,1.03.29,2.02.71,3.03,1.06.74.26,1.32.07,1.65-.66.44-.97,1.28-.52,1.93-.47.17.01.44.83.39,1.24-.24,2.1-1.93,3.22-3.97,2.65-1.07-.3-2.1-.7-3.16-1.03-.78-.25-1.3-.1-1.87.65-.36.48-1.34.5-2.13.76Z"/>
      </g>
      <g>
        <path class="cls-2" d="m211.64,274.79c0,14.34-11.67,26.01-26.01,26.01-4.96,0-9.6-1.4-13.55-3.81v15.29h-1.5v-16.28c-4.32-3.07-7.67-7.43-9.47-12.51v28.8h-1.5v-57.62l-10.36,7.86v-1.88l11.85-8.99v23.14c0,13.52,11,24.51,24.52,24.51s24.51-11,24.51-24.51c0-11.37-9.25-20.62-20.61-20.62h-3.15l.73-5.58h22.91v1.5h-21.59l-.34,2.59h1.44c12.19,0,22.11,9.92,22.11,22.11h0Zm-49.68-35.67h8.63v35.67c0,8.29,6.75,15.04,15.04,15.04s15.04-6.75,15.04-15.04c0-6.15-5-11.14-11.14-11.14h-13.94l3.22-24.52h31.22v-1.5h-32.53l-3.61,27.51h15.65c5.32,0,9.65,4.33,9.65,9.65,0,7.47-6.08,13.55-13.55,13.55s-13.55-6.08-13.55-13.55v-37.16h-10.63l-12.19,9.25v1.88l12.7-9.63Z"/>
        <path class="cls-2" d="m185.8,247.1l-1.12,8.57h4.85c10.54,0,19.12,8.58,19.12,19.12,0,12.69-10.33,23.02-23.02,23.02s-23.02-10.33-23.02-23.02v-26.15l-13.35,10.13v-8.14l13.2-10.01h6.63v34.17c0,9.12,7.42,16.54,16.54,16.54s16.54-7.42,16.54-16.54c0-6.97-5.67-12.64-12.64-12.64h-12.24l2.82-21.53h29.9v6.48h-24.22Zm-23.19,39.78v25.4h6.48v-17.43c-2.65-2.19-4.86-4.9-6.48-7.97h0Z"/>
        <g class="cls-1">
          <path class="cls-2" d="m181.61,312.19c-.1-.31-.21-.64-.32-.97-.12-.33-.23-.66-.34-.99h-3.53c-.11.33-.23.66-.34.99-.12.33-.22.65-.32.96h-2.11c.34-.97.66-1.87.97-2.7.3-.83.6-1.6.9-2.33.29-.73.58-1.42.86-2.08.28-.66.58-1.3.88-1.92h1.93c.3.63.59,1.27.88,1.92s.58,1.35.87,2.08c.29.73.59,1.51.9,2.33.3.82.63,1.72.97,2.7h-2.18Zm-2.44-6.99c-.05.13-.11.31-.2.54-.09.23-.19.49-.3.78-.11.3-.24.62-.37.98-.14.36-.28.73-.42,1.12h2.58c-.14-.39-.27-.77-.4-1.12-.13-.36-.25-.68-.37-.98-.12-.3-.22-.56-.31-.78-.09-.23-.16-.4-.21-.53Z"/>
          <path class="cls-2" d="m191.01,312.19c-.58-1.03-1.21-2.05-1.89-3.06-.68-1.01-1.4-1.96-2.16-2.85v5.92h-2.01v-9.03h1.65c.29.29.6.64.95,1.06s.7.86,1.06,1.34c.36.47.72.96,1.07,1.47.36.51.69,1,1,1.47v-5.33h2.02v9.03h-1.71Z"/>
          <path class="cls-2" d="m203.4,307.67c0,.77-.12,1.45-.35,2.04s-.54,1.08-.94,1.47c-.4.4-.88.69-1.43.89s-1.14.3-1.78.3-1.2-.1-1.75-.3c-.55-.2-1.02-.5-1.43-.89-.41-.4-.73-.89-.97-1.47-.23-.59-.35-1.27-.35-2.04s.12-1.45.36-2.04c.24-.59.57-1.08.98-1.48s.89-.7,1.43-.9,1.11-.3,1.71-.3,1.2.1,1.75.3c.55.2,1.03.5,1.43.9s.73.89.96,1.48.35,1.27.35,2.04Zm-6.9,0c0,.44.06.84.16,1.2s.26.66.47.92c.2.26.45.45.75.59.3.14.63.21,1.02.21s.71-.07,1.01-.21c.3-.14.55-.34.76-.59.2-.26.36-.56.47-.92s.16-.76.16-1.2-.05-.84-.16-1.21c-.11-.36-.27-.67-.47-.92s-.46-.45-.76-.59c-.3-.14-.64-.21-1.01-.21s-.72.07-1.02.21c-.3.14-.54.34-.75.6-.21.26-.36.56-.47.92-.11.36-.16.76-.16,1.19Z"/>
          <path class="cls-2" d="m207.56,310.64c.29,0,.52-.02.71-.07.19-.05.34-.11.45-.2.11-.08.19-.18.23-.29.04-.11.07-.24.07-.38,0-.29-.14-.54-.42-.74-.28-.2-.76-.41-1.43-.63-.3-.1-.59-.22-.89-.36-.29-.14-.56-.3-.79-.51-.24-.2-.43-.45-.57-.74-.15-.29-.22-.65-.22-1.06s.08-.79.23-1.13c.16-.33.38-.62.67-.85.29-.23.64-.42,1.04-.54.41-.13.87-.19,1.38-.19.61,0,1.13.07,1.58.2s.81.27,1.09.43l-.59,1.6c-.25-.13-.53-.24-.84-.35-.31-.1-.68-.15-1.11-.15-.49,0-.84.07-1.05.2-.21.14-.32.34-.32.62,0,.17.04.3.12.42s.19.21.33.31c.14.09.31.17.49.25s.39.15.62.23c.47.17.88.35,1.22.51s.64.37.87.59c.23.23.4.49.51.79.11.3.17.67.17,1.11,0,.84-.3,1.5-.89,1.96-.59.46-1.48.7-2.67.7-.4,0-.76-.02-1.08-.07-.32-.05-.6-.11-.85-.18s-.46-.14-.64-.22c-.18-.08-.33-.15-.45-.22l.57-1.62c.27.15.6.28,1,.4.4.12.88.18,1.45.18Z"/>
        </g>
      </g>
    </g>
  </g>
</svg>